<svg width="49" height="38" viewBox="0 0 49 38" fill="none" xmlns="http://www.w3.org/2000/svg">
<path d="M45.0674 0.0112305H3.93187C3.02299 0.0121426 2.15161 0.375424 1.50893 1.02135C0.866264 1.66727 0.504814 2.54307 0.503906 3.45655V34.4644C0.504814 35.3779 0.866264 36.2537 1.50893 36.8996C2.15161 37.5455 3.02299 37.9088 3.93187 37.9097H45.0674C45.9761 37.9084 46.8472 37.5449 47.4898 36.8991C48.1324 36.2533 48.494 35.3777 48.4953 34.4644V3.45655C48.4944 2.54307 48.133 1.66727 47.4903 1.02135C46.8477 0.375424 45.9763 0.0121426 45.0674 0.0112305ZM3.93187 3.45655H22.7856V34.4644H3.93187V3.45655ZM26.2136 34.4644V3.45655H45.0674L45.0708 34.4644H26.2136Z" fill="white"/>
</svg>
